<?xml version="1.0" encoding="utf-8"?>
<!-- Generator: Adobe Illustrator 26.0.2, SVG Export Plug-In . SVG Version: 6.00 Build 0)  -->
<svg version="1.1" id="Ebene_1" xmlns="http://www.w3.org/2000/svg" xmlns:xlink="http://www.w3.org/1999/xlink" x="0px" y="0px"
	 viewBox="0 0 85 85" style="enable-background:new 0 0 85 85;" xml:space="preserve">
<style type="text/css">
	.st0{fill:#DD1F31;}
	.st1{fill:#F5F1E6;}
</style>
<g>
	<path class="st1" d="M3.1,9.9h17.7c11.6,0,16.7,6.9,16.7,14.1c0,6.6-4.8,13.1-14.6,14.2l17,21.6h-8.6L14.4,38.4h-2.7v21.5H3.1V9.9z
		 M11.7,12.1v24.2h6.8c6.1,0,10.5-6.1,10.5-12.7c0-6.6-4.6-11.5-10.6-11.5H11.7z"/>
	<path class="st1" d="M60.9,9.9c5.7,0,16.3,2.5,16.3,12.6c0,5.9-3.4,9.4-7.8,11.1c5.6,1,12.5,4.6,12.5,12.6
		c0,9.6-8.9,13.6-18.7,13.6H42.1v-50H60.9z M50.6,11.9v21.5h6.9c4.6,0,11.1-2.4,11.1-11.3c0-9-6.4-10.2-11.1-10.2H50.6z M50.6,58
		h11.1c7.8,0,11.6-5.5,11.6-12c0-6.1-3.5-10.6-10.9-10.6H50.6V58z"/>
	<rect id="Rechteck_7" x="3.1" y="68.8" class="st1" width="78.7" height="6.3"/>
</g>
</svg>
